<?xml version="1.0" standalone="no"?><!DOCTYPE svg PUBLIC "-//W3C//DTD SVG 1.1//EN" "http://www.w3.org/Graphics/SVG/1.1/DTD/svg11.dtd"><svg t="1676619122152" class="icon" viewBox="0 0 1024 1024" version="1.1" xmlns="http://www.w3.org/2000/svg" p-id="2127" xmlns:xlink="http://www.w3.org/1999/xlink"><path d="M264.704 718.336H101.888V322.56h682.496v25.6c0 28.16 23.04 51.2 51.2 51.2s51.2-23.04 51.2-51.2V81.408c0-28.16-23.04-51.2-51.2-51.2H51.2c-28.16 0-51.2 23.04-51.2 51.2v688.128c0 28.16 23.04 51.2 51.2 51.2h214.016c28.16 0 51.2-23.04 51.2-51.2-0.512-28.16-23.552-51.2-51.712-51.2zM101.888 132.608h682.496v88.576H101.888V132.608z" p-id="2128"></path><path d="M972.8 433.152H402.432c-28.16 0-51.2 23.04-51.2 51.2v458.24c0 28.16 23.04 51.2 51.2 51.2H972.8c28.16 0 51.2-23.04 51.2-51.2V483.84c0-28.16-23.04-50.688-51.2-50.688z m-50.688 458.24H453.632v-173.056h468.48v173.056z m0-274.944H453.632v-81.408h468.48v81.408z" p-id="2129"></path></svg>