<svg t="1678327418140" class="icon" viewBox="0 0 1024 1024" version="1.1" xmlns="http://www.w3.org/2000/svg" p-id="9538" xmlns:xlink="http://www.w3.org/1999/xlink"><path d="M938.666667 42.666667H85.333333C38.272 42.666667 0 80.938667 0 128v640c0 47.061333 38.272 85.333333 85.333333 85.333333h290.389334l-28.437334 85.333334H213.333333a21.333333 21.333333 0 1 0 0 42.666666h597.333334a21.333333 21.333333 0 1 0 0-42.666666h-133.952l-28.458667-85.333334H938.666667c47.061333 0 85.333333-38.272 85.333333-85.333333V128c0-47.061333-38.272-85.333333-85.333333-85.333333zM631.744 938.666667H392.277333l28.437334-85.333334h182.592l28.437333 85.333334zM981.333333 768c0 23.530667-19.157333 42.666667-42.666666 42.666667H85.333333c-23.530667 0-42.666667-19.136-42.666666-42.666667V128c0-23.530667 19.136-42.666667 42.666666-42.666667h853.333334c23.509333 0 42.666667 19.136 42.666666 42.666667v640z" p-id="9539"></path><path d="M85.333333 682.666667h853.333334V128H85.333333v554.666667zM128 170.666667h768v469.333333H128V170.666667zM512 704c-23.530667 0-42.666667 19.136-42.666667 42.666667s19.136 42.666667 42.666667 42.666666c23.509333 0 42.666667-19.136 42.666667-42.666666s-19.157333-42.666667-42.666667-42.666667z m0 64l-0.021333-21.312 0.042666-0.021333L512 768z" p-id="9540"></path></svg>