<?xml version="1.0" standalone="no"?><!DOCTYPE svg PUBLIC "-//W3C//DTD SVG 1.1//EN" "http://www.w3.org/Graphics/SVG/1.1/DTD/svg11.dtd"><svg t="1675135714165" class="icon" viewBox="0 0 1052 1024" version="1.1" xmlns="http://www.w3.org/2000/svg" p-id="1673" xmlns:xlink="http://www.w3.org/1999/xlink"><path d="M910.222222 0H142.222222A142.222222 142.222222 0 0 0 0 142.222222v739.555556a142.222222 142.222222 0 0 0 142.222222 142.222222h768a142.222222 142.222222 0 0 0 142.222222-142.222222V142.222222A142.222222 142.222222 0 0 0 910.222222 0z m85.333334 881.777778a85.333333 85.333333 0 0 1-85.333334 85.333333H142.222222a85.333333 85.333333 0 0 1-85.333333-85.333333V142.222222a85.333333 85.333333 0 0 1 85.333333-85.333333h768a85.333333 85.333333 0 0 1 85.333334 85.333333z" p-id="1674"></path><path d="M770.702222 227.555556a50.062222 50.062222 0 0 0-50.631111 49.208888 47.928889 47.928889 0 0 0 18.204445 37.404445C719.217778 406.755556 631.466667 476.444444 526.222222 476.444444s-192.995556-69.688889-212.053333-161.706666a47.928889 47.928889 0 0 0 18.204444-37.404445 50.631111 50.631111 0 0 0-101.262222 0 48.64 48.64 0 0 0 26.311111 42.666667c21.902222 120.888889 133.831111 213.333333 268.8 213.333333s246.897778-92.302222 268.8-213.333333a48.64 48.64 0 0 0 26.311111-42.666667 50.062222 50.062222 0 0 0-50.631111-49.777777z m-488.96 42.666666a7.395556 7.395556 0 0 1 6.257778 7.822222h-12.515556a7.395556 7.395556 0 0 1 6.257778-7.822222z m488.96 0a7.395556 7.395556 0 0 1 6.257778 7.822222h-12.515556a7.395556 7.395556 0 0 1 6.257778-7.822222z" p-id="1675"></path></svg>